<svg width="8" height="9" viewBox="0 0 8 9" fill="none" xmlns="http://www.w3.org/2000/svg">
<path d="M6.51628 6.48474C6.58672 6.55519 6.6263 6.65074 6.6263 6.75037C6.6263 6.85 6.58672 6.94554 6.51628 7.01599C6.44583 7.08644 6.35028 7.12602 6.25065 7.12602C6.15102 7.12602 6.05547 7.08644 5.98503 7.01599L4.00096 5.0313L2.01628 7.01537C1.94583 7.08582 1.85028 7.12539 1.75065 7.12539C1.65102 7.12539 1.55547 7.08582 1.48503 7.01537C1.41458 6.94492 1.375 6.84937 1.375 6.74974C1.375 6.65011 1.41458 6.55457 1.48503 6.48412L3.46971 4.50005L1.48565 2.51537C1.4152 2.44492 1.37563 2.34937 1.37563 2.24974C1.37563 2.15011 1.4152 2.05457 1.48565 1.98412C1.5561 1.91367 1.65165 1.87409 1.75128 1.87409C1.8509 1.87409 1.94645 1.91367 2.0169 1.98412L4.00096 3.9688L5.98565 1.9838C6.0561 1.91336 6.15165 1.87378 6.25128 1.87378C6.3509 1.87378 6.44645 1.91336 6.5169 1.9838C6.58735 2.05425 6.62693 2.1498 6.62693 2.24943C6.62693 2.34906 6.58735 2.44461 6.5169 2.51505L4.53221 4.50005L6.51628 6.48474Z" fill="#8B8698"/>
</svg>
