<svg width="29" height="21" viewBox="0 0 29 21" fill="none" xmlns="http://www.w3.org/2000/svg">
<mask id="path-1-outside-1_939_25574" maskUnits="userSpaceOnUse" x="0" y="0" width="29" height="21" fill="black">
<rect fill="white" width="29" height="21"/>
<path d="M2 4C2 1.79086 3.79086 0 6 0H23C25.2091 0 27 1.79086 27 4V15C27 17.2091 25.2091 19 23 19H6C3.79086 19 2 17.2091 2 15V4Z"/>
</mask>
<path d="M2 4C2 1.79086 3.79086 0 6 0H23C25.2091 0 27 1.79086 27 4V15C27 17.2091 25.2091 19 23 19H6C3.79086 19 2 17.2091 2 15V4Z" fill="#E2E7F3"/>
<path d="M12.75 5C11.785 5 11 5.785 11 6.75V7.5H9V6.75C9 5.785 8.215 5 7.25 5C6.285 5 5.5 5.785 5.5 6.75C5.5 7.715 6.285 8.5 7.25 8.5H8V10.5H7.25C6.285 10.5 5.5 11.285 5.5 12.25C5.5 13.215 6.285 14 7.25 14C8.215 14 9 13.215 9 12.25V11.5H11V12.25C11 13.215 11.785 14 12.75 14C13.715 14 14.5 13.215 14.5 12.25C14.5 11.285 13.715 10.5 12.75 10.5H12V8.5H12.75C13.715 8.5 14.5 7.715 14.5 6.75C14.5 5.785 13.715 5 12.75 5ZM12 7.5V6.75C12 6.335 12.335 6 12.75 6C13.165 6 13.5 6.335 13.5 6.75C13.5 7.165 13.165 7.5 12.75 7.5H12ZM7.25 7.5C6.835 7.5 6.5 7.165 6.5 6.75C6.5 6.335 6.835 6 7.25 6C7.665 6 8 6.335 8 6.75V7.5H7.25ZM9 10.5V8.5H11V10.5H9ZM12.75 13C12.335 13 12 12.665 12 12.25V11.5H12.75C13.165 11.5 13.5 11.835 13.5 12.25C13.5 12.665 13.165 13 12.75 13ZM7.25 13C6.835 13 6.5 12.665 6.5 12.25C6.5 11.835 6.835 11.5 7.25 11.5H8V12.25C8 12.665 7.665 13 7.25 13Z" fill="#767184"/>
<path d="M16.24 14H17.944L18.544 12.428H22.012L22.612 14H24.352L20.968 5.564H19.636L16.24 14ZM19.072 11.06L20.296 7.868L21.496 11.06H19.072Z" fill="#767184"/>
<path d="M2 0H27H2ZM28.2 15.4C28.2 18.2719 25.8719 20.6 23 20.6H6C3.12812 20.6 0.8 18.2719 0.8 15.4L3.2 15C3.2 16.3255 4.4536 17.4 6 17.4H23C24.5464 17.4 25.8 16.3255 25.8 15L28.2 15.4ZM6 20.6C3.12812 20.6 0.8 18.2719 0.8 15.4V5.2C0.8 2.32812 3.12812 0 6 0H6C4.4536 0 3.2 1.79086 3.2 4V15C3.2 16.3255 4.4536 17.4 6 17.4L6 20.6ZM23 0C25.8719 0 28.2 2.32812 28.2 5.2V15.4C28.2 18.2719 25.8719 20.6 23 20.6V17.4C24.5464 17.4 25.8 16.3255 25.8 15V4C25.8 1.79086 24.5464 0 23 0Z" fill="#D4DBED" mask="url(#path-1-outside-1_939_25574)"/>
</svg>
