<svg width="18" height="18" viewBox="0 0 18 18" fill="none" xmlns="http://www.w3.org/2000/svg">
<path d="M8.16797 13.1667H9.83463V8.16675H8.16797V13.1667ZM9.0013 6.50008C9.23741 6.50008 9.43547 6.42008 9.59547 6.26008C9.75547 6.10008 9.83519 5.9023 9.83463 5.66675C9.83463 5.43064 9.75463 5.23258 9.59464 5.07258C9.43464 4.91258 9.23686 4.83286 9.0013 4.83341C8.76519 4.83341 8.56713 4.91341 8.40714 5.07341C8.24714 5.23341 8.16741 5.43119 8.16797 5.66675C8.16797 5.90286 8.24797 6.10091 8.40797 6.26091C8.56797 6.42091 8.76575 6.50064 9.0013 6.50008ZM9.0013 17.3334C7.84852 17.3334 6.76519 17.1145 5.7513 16.6767C4.73741 16.239 3.85547 15.6454 3.10547 14.8959C2.35547 14.1459 1.76186 13.264 1.32464 12.2501C0.887413 11.2362 0.668524 10.1529 0.667969 9.00008C0.667969 7.8473 0.886858 6.76397 1.32464 5.75008C1.76241 4.73619 2.35602 3.85425 3.10547 3.10425C3.85547 2.35425 4.73741 1.76064 5.7513 1.32341C6.76519 0.886193 7.84852 0.667304 9.0013 0.666748C10.1541 0.666748 11.2374 0.885637 12.2513 1.32341C13.2652 1.76119 14.1471 2.3548 14.8971 3.10425C15.6471 3.85425 16.241 4.73619 16.6788 5.75008C17.1166 6.76397 17.3352 7.8473 17.3346 9.00008C17.3346 10.1529 17.1157 11.2362 16.678 12.2501C16.2402 13.264 15.6466 14.1459 14.8971 14.8959C14.1471 15.6459 13.2652 16.2398 12.2513 16.6776C11.2374 17.1154 10.1541 17.334 9.0013 17.3334Z" fill="#767184"/>
</svg>
